PathFileType	4	(X/Y/Z)	Run_500 02
DataRate	CameraRate	NumFrames	NumMarkers	Units	OrigDataRate	OrigDataStartFrame	OrigNumFrames
100	100	7	42	mm	100	360	128
Frame#	Time	RASI			RPSI			RTH1			RTH2			RTH3			LTH1			LTH2			LTH3			RTB1			RTB2			RTB3			LTB1			LTB2			LTB3			RCAL			RTOE			RMT5			LCAL			LTOE			LMT5			LACR			RACR			CLAV			C7			RUA1			RUA2			RUA3			RLEL			LUA1			LUA2			LUA3			LLEL			LMEL			RFAsuperior			RFAradius			RFAulna			LFAsuperior			LFAradius			LPSI			RMEL			LFAulna			LASI		
		X1	Y1	Z1	X2	Y2	Z2	X3	Y3	Z3	X4	Y4	Z4	X5	Y5	Z5	X6	Y6	Z6	X7	Y7	Z7	X8	Y8	Z8	X9	Y9	Z9	X10	Y10	Z10	X11	Y11	Z11	X12	Y12	Z12	X13	Y13	Z13	X14	Y14	Z14	X15	Y15	Z15	X16	Y16	Z16	X17	Y17	Z17	X18	Y18	Z18	X19	Y19	Z19	X20	Y20	Z20	X21	Y21	Z21	X22	Y22	Z22	X23	Y23	Z23	X24	Y24	Z24	X25	Y25	Z25	X26	Y26	Z26	X27	Y27	Z27	X28	Y28	Z28	X29	Y29	Z29	X30	Y30	Z30	X31	Y31	Z31	X32	Y32	Z32	X33	Y33	Z33	X34	Y34	Z34	X35	Y35	Z35	X36	Y36	Z36	X37	Y37	Z37	X38	Y38	Z38	X39	Y39	Z39	X40	Y40	Z40	X41	Y41	Z41	X42	Y42	Z42	

360	  3.600000	995.732328	1049.371281	-222.890696	844.253221	1112.363444	-302.074483	941.831723	950.180537	-166.861496	986.479083	807.825403	-202.595040	1119.849972	724.430247	-209.954726	913.534639	916.008685	-527.759303	769.786050	823.334971	-481.068449	744.241770	681.594401	-475.291399	1230.598173	501.515821	-273.516256	1144.896177	460.850776	-206.996271	1183.013876	317.559943	-289.017032	638.381435	468.941566	-409.378760	504.768524	459.264408	-467.084949	458.102303	345.003376	-407.467652	1051.461970	196.269640	-294.787308	1290.370504	156.971368	-320.536705	1240.937561	130.684566	-225.733632	300.555032	376.679655	-399.025989	350.375356	149.464797	-349.160197	295.747676	163.676758	-445.579690	987.072175	1541.439874	-502.624468	956.435573	1525.283776	-182.935017	1027.152387	1489.737275	-301.008591	915.820867	1556.975807	-354.209841	815.318577	1487.711594	-159.788969	820.176135	1429.239918	-103.755158	715.026310	1407.758328	-90.476862	652.473408	1371.940487	-73.142522	901.371673	1441.949902	-569.772174	935.601189	1369.126842	-592.140620	864.495100	1305.831489	-627.897797	852.930125	1238.563454	-649.932511	829.061620	1212.670566	-561.055987	708.068542	1281.819073	-45.105180	851.169395	1175.309614	-84.375076	796.512530	1143.722225	-57.412644	931.721546	1225.566718	-625.357155	1055.853945	1312.522531	-514.759989	859.534876	1114.224325	-416.606731	663.589720	1333.317514	-154.385714	1087.503024	1250.055394	-535.002817	1022.780453	1041.108424	-458.912972	
361	  3.610000	994.985120	1050.654106	-223.667832	844.065237	1113.274431	-302.678494	939.346619	948.960840	-167.118522	981.025458	805.312546	-202.954397	1110.772315	716.463427	-209.947302	916.552788	916.278668	-527.225775	773.119533	822.765308	-482.148258	749.462633	679.984127	-475.934755	1232.314525	495.358963	-274.380409	1152.574578	446.827357	-206.335858	1203.886545	307.683592	-290.049373	633.646503	472.720854	-409.638606	500.191221	473.740308	-469.782780	443.066052	364.421915	-410.316077	1085.680530	174.057796	-293.914836	1325.351610	157.752846	-326.621565	1282.259862	124.547487	-231.836312	285.257842	407.505327	-405.389971	323.898319	178.971717	-352.809321	273.131514	194.849649	-451.310441	987.106807	1543.443728	-501.452413	956.663401	1526.017470	-181.573338	1027.196358	1491.012523	-299.793448	916.038989	1558.323456	-352.886916	815.467203	1488.306220	-158.677809	820.229246	1429.680982	-103.322790	714.515859	1409.389365	-91.403105	652.017414	1372.772973	-74.205847	901.452961	1444.241926	-568.887656	935.728620	1372.003311	-592.166514	864.836590	1309.147830	-628.991458	853.039905	1241.940025	-651.777379	828.081723	1215.877027	-563.294701	707.714202	1282.522195	-45.659968	852.050126	1177.218314	-83.629037	797.200906	1144.626998	-58.498902	931.576209	1228.711310	-625.437511	1053.283299	1315.616353	-512.391067	859.884366	1115.903591	-417.152734	664.076381	1333.966933	-155.067415	1085.695469	1252.985395	-531.843581	1023.162356	1042.730162	-459.274823	
362	  3.620000	994.100768	1051.864734	-224.433959	843.368754	1113.005206	-303.820505	937.612107	948.486615	-166.669110	974.770844	801.891042	-203.748642	1099.416881	706.480108	-210.098783	920.551243	914.880781	-526.570021	777.854580	819.619743	-483.622796	756.915581	675.876167	-476.213351	1230.708536	488.043355	-276.402843	1157.533651	433.696362	-206.558821	1219.477677	298.847237	-291.637940	631.995986	474.799478	-410.716407	498.663998	488.473592	-470.897126	432.013354	384.084802	-413.573670	1113.726217	156.292523	-291.919706	1351.917598	160.041359	-332.484415	1315.449895	121.043211	-237.742018	276.534162	439.917145	-410.142701	300.399490	209.375155	-358.502997	252.729596	228.981199	-458.135302	987.097826	1544.831121	-500.106618	957.289686	1526.043517	-180.245810	1027.189515	1491.433019	-298.874615	916.304430	1558.956919	-351.407079	816.001534	1487.719624	-156.946358	821.262767	1428.761020	-102.296991	715.465378	1408.527716	-90.791994	653.147716	1371.049564	-73.789710	901.046322	1446.446793	-567.699732	935.148415	1374.467800	-591.913397	864.282349	1312.200950	-629.623205	852.029690	1245.029990	-652.822015	825.778311	1219.074450	-564.774911	709.288776	1280.775013	-45.219113	854.633577	1176.736089	-82.878475	799.794992	1143.258821	-58.966775	930.191438	1230.145784	-625.312969	1051.747758	1314.914501	-510.381687	859.698646	1116.343759	-418.126628	665.871980	1332.425433	-154.478343	1083.338566	1251.570027	-529.297667	1023.003789	1043.112054	-460.081343	
363	  3.630000	993.130072	1052.848395	-225.270052	842.426369	1111.586384	-305.594773	936.586632	947.963552	-166.357641	967.738233	797.582953	-204.281840	1086.882361	695.234358	-209.961537	925.101941	912.131170	-525.968004	783.756480	814.409734	-485.257698	765.563493	670.091045	-476.135796	1226.432842	480.328939	-279.362229	1159.266077	421.747116	-207.717807	1229.136762	291.191547	-293.922577	633.767935	475.085812	-412.173906	501.291555	502.450891	-470.796686	425.934526	403.220136	-417.036864	1133.453166	143.194171	-289.888067	1369.274569	161.386082	-338.664584	1338.603181	119.103452	-243.031804	276.165087	472.936308	-412.971545	280.117457	240.154264	-366.655483	235.111673	266.188506	-466.078977	987.115775	1545.373275	-498.490670	958.269497	1525.058625	-179.025262	1027.068241	1490.763606	-298.171862	916.595591	1558.812260	-349.820926	816.892592	1485.973153	-154.845124	823.076088	1426.485291	-100.746361	717.712536	1405.122358	-88.590957	655.714167	1366.836909	-71.717032	900.298409	1448.436915	-566.434285	933.919917	1376.416801	-591.438860	862.845730	1314.956871	-629.818641	849.846064	1247.886739	-653.135810	822.125387	1222.308872	-565.502369	712.738386	1276.778853	-43.714086	858.828817	1174.066647	-82.101630	804.220542	1139.835969	-58.655334	927.401684	1230.092211	-625.146669	1051.003983	1310.502244	-508.794776	859.399219	1115.232172	-419.647054	668.668452	1328.674797	-152.510033	1080.202529	1246.012068	-527.647204	1022.726801	1041.942729	-461.451784	
364	  3.640000	991.910087	1053.246643	-226.225680	841.348997	1109.187861	-307.904127	935.547962	946.114816	-166.973798	960.540705	792.678976	-203.616231	1075.221685	683.978680	-209.067074	929.497284	908.451058	-525.456876	790.368885	807.608609	-486.677640	774.898341	663.120106	-476.083538	1220.228825	472.657162	-281.983700	1156.744579	410.932528	-209.796076	1232.606465	284.357208	-296.525076	638.839690	473.655467	-413.340374	508.699595	514.523788	-470.347181	425.015005	421.362862	-420.185627	1143.630881	133.400211	-289.777405	1377.669308	159.782722	-344.344620	1350.673492	115.953731	-247.626358	283.441087	505.014275	-413.863463	264.428041	271.256517	-376.640334	222.602236	305.612165	-474.821445	987.207425	1544.777568	-496.603889	959.479274	1522.732741	-177.992978	1026.826354	1488.810121	-297.635048	916.850446	1557.749422	-348.172560	818.070369	1482.944794	-152.438468	825.478046	1422.691882	-98.754632	721.047935	1399.261132	-84.997738	659.515400	1360.278076	-67.980842	899.277427	1449.897891	-565.202067	932.061190	1377.647114	-590.857632	860.520033	1317.270570	-629.613072	846.489563	1250.391650	-652.921397	817.152673	1225.311391	-565.713938	717.868710	1270.747733	-41.153777	864.471479	1169.494892	-81.202219	810.345578	1134.599614	-57.515919	923.139994	1228.774613	-625.169916	1050.421828	1302.555497	-507.705987	859.297036	1112.484042	-421.606165	672.168049	1322.730347	-149.106646	1075.996986	1236.748596	-527.068833	1022.653792	1039.139010	-463.241821	
365	  3.650000	990.317811	1052.501988	-227.328004	840.225819	1105.948451	-310.419867	933.879807	942.278679	-168.493725	953.869623	787.402608	-201.763427	1065.955673	673.897016	-207.771881	933.179090	904.151411	-524.992470	797.069503	799.630561	-487.465914	784.870301	655.228129	-476.467749	1212.495726	464.686834	-282.988941	1149.467729	400.697068	-212.345292	1230.059051	277.231844	-298.708008	646.808649	470.885942	-414.128592	520.609309	524.112387	-470.282580	429.009354	438.198758	-422.675689	1144.310228	124.696612	-293.028984	1378.138798	154.390860	-347.650764	1351.662332	108.039851	-251.735145	296.690143	534.535093	-413.122257	255.141445	302.082825	-387.186622	217.758592	345.084516	-483.682095	987.332541	1542.853886	-494.671212	960.735657	1518.863335	-177.168079	1026.536680	1485.526825	-297.229534	916.974736	1555.601351	-346.521180	819.454722	1478.407126	-149.603170	828.348449	1417.181994	-96.339447	725.274850	1391.121209	-80.298559	664.344397	1351.513893	-62.776755	897.907059	1450.468337	-563.971232	929.556829	1377.889771	-590.289872	857.261296	1318.918998	-629.133408	842.017842	1252.259813	-652.384980	811.073807	1227.689679	-565.776654	724.376111	1262.823427	-37.573189	871.384529	1163.298852	-80.033954	818.011193	1127.732427	-55.613452	917.446827	1226.304686	-625.548611	1049.277339	1291.385458	-507.209612	859.459433	1108.332966	-423.672856	676.176147	1314.646418	-144.347642	1070.500615	1224.420454	-527.686788	1022.862013	1034.933390	-465.083606	
366	  3.660000	988.512116	1050.068446	-228.635132	839.287593	1101.859731	-312.568685	931.541061	936.806711	-170.144380	947.866766	781.600024	-200.068567	1058.863563	665.303288	-207.135197	936.098149	899.348709	-524.596481	803.387820	790.817889	-487.336645	795.627907	646.593084	-477.410375	1203.125907	455.331973	-281.902999	1137.910315	390.055839	-214.539421	1221.945088	268.238267	-299.790207	657.384002	467.179168	-415.225044	536.169478	531.420882	-470.817140	437.578785	453.332135	-424.680438	1136.169238	115.847126	-299.232105	1371.355633	144.480177	-347.706436	1342.085677	 93.445848	-255.402758	314.329580	560.333510	-411.180687	253.530768	331.154778	-397.099419	221.705073	381.787935	-491.858855	987.301329	1539.553454	-493.081453	961.893899	1513.444866	-176.456359	1026.306040	1481.043820	-296.890200	916.909713	1552.307001	-344.935768	821.032935	1472.090040	-146.183946	831.667918	1409.819764	-93.472938	730.250623	1380.912853	-74.720858	670.062881	1340.648727	-56.411952	896.007856	1449.817959	-562.680299	926.380977	1376.864413	-589.815293	853.063352	1319.619477	-628.573022	836.547367	1253.134259	-651.677777	804.396482	1229.068412	-565.982239	731.973246	1253.036658	-33.033300	879.433562	1155.662847	-78.485180	827.063093	1119.319103	-53.108355	910.443445	1222.644484	-626.303734	1047.009497	1277.390911	-507.357090	859.767878	1103.221128	-425.438774	680.664947	1304.510470	-138.447629	1063.620912	1209.706202	-529.589546	1023.217935	1029.763489	-466.611466	
